<?xml version="1.0" standalone="no"?>
<!DOCTYPE svg PUBLIC "-//W3C//DTD SVG 20010904//EN"
 "http://www.w3.org/TR/2001/REC-SVG-20010904/DTD/svg10.dtd">
<svg version="1.0" xmlns="http://www.w3.org/2000/svg"
 width="81.000000pt" height="74.000000pt" viewBox="0 0 81.000000 74.000000"
 preserveAspectRatio="xMidYMid meet">

<g transform="translate(0.000000,74.000000) scale(0.100000,-0.100000)"
fill="#000000" stroke="none">
<path d="M325 655 c-28 -27 -31 -45 -14 -78 16 -30 28 -37 66 -37 61 0 86 80
37 119 -35 27 -59 26 -89 -4z"/>
<path d="M497 622 c-23 -25 -21 -78 3 -102 59 -59 152 27 100 93 -26 33 -78
37 -103 9z"/>
<path d="M172 570 c-45 -42 -15 -120 47 -120 33 0 71 39 71 72 0 26 -44 68
-73 68 -13 0 -33 -9 -45 -20z"/>
<path d="M385 441 c-42 -18 -57 -49 -82 -172 -26 -129 -25 -157 7 -189 32 -32
80 -26 136 17 26 21 93 61 149 88 94 47 101 52 109 88 15 61 -10 85 -135 128
-125 44 -158 51 -184 40z"/>
<path d="M111 394 c-27 -35 -26 -59 4 -89 45 -46 115 -19 115 45 0 65 -79 94
-119 44z"/>
</g>
</svg>
